<svg width="1000" height="1000" viewBox="0 0 1000 1000" fill="none" xmlns="http://www.w3.org/2000/svg">
<rect width="1000" height="1000" fill="black"/>
<path fill-rule="evenodd" clip-rule="evenodd" d="M132.378 250.619C122.439 260.559 112.501 277.309 112.501 299.675L112.5 300.315C112.5 277.037 117.47 255.589 127.409 245.65C137.348 235.711 152.02 232.26 169.277 231.036C186.452 229.818 206.824 232.474 229.362 237.085C250.252 241.359 273.317 247.384 297.784 253.775C299.756 254.29 301.737 254.807 303.726 255.326C410.08 283.074 556.785 325.027 656.15 248.294C657.266 247.432 658.924 248.118 659.054 249.522V249.522C659.117 250.194 658.783 250.849 658.207 251.2C544.321 320.633 430.197 299.184 301.345 265.528C299.374 265.014 303.295 266.037 301.345 265.528C276.804 259.118 248.161 249.236 227.523 245.013C205.209 240.448 188.033 235.957 172.135 237.085C156.319 238.206 142.318 240.68 132.378 250.619Z" fill="white"/>
<path d="M301.345 265.528C430.197 299.184 544.321 320.633 658.207 251.2C658.783 250.849 659.117 250.194 659.054 249.522V249.522C658.924 248.118 657.266 247.432 656.15 248.294C556.785 325.027 410.08 283.074 303.726 255.326C301.737 254.807 299.756 254.29 297.784 253.775C273.317 247.384 250.252 241.359 229.362 237.085C206.824 232.474 186.452 229.818 169.277 231.036C152.02 232.26 137.348 235.711 127.409 245.65C117.47 255.589 112.5 277.037 112.5 300.315L112.501 299.675C112.501 277.309 122.439 260.559 132.378 250.619C142.318 240.68 156.319 238.206 172.135 237.085C188.033 235.957 205.209 240.448 227.523 245.013C248.161 249.236 276.804 259.118 301.345 265.528ZM301.345 265.528C303.295 266.037 299.374 265.014 301.345 265.528Z" stroke="white" stroke-width="3.97568"/>
<path d="M231.444 806.778L231.46 806.81C260.483 863.594 289.906 887.082 315.415 895.475C340.528 903.737 361.201 903.528 383.323 891.546C405.796 879.373 427.875 855.786 449.152 823.858C470.362 792.03 490.436 752.436 509.094 708.916C573.076 559.674 619.46 366.713 638.357 288.101L638.376 288.021C641.507 274.996 643.87 265.165 645.437 259.17L647.28 254.684L658.724 255.062L657.033 261.973C655.517 267.751 653.196 277.416 650.132 290.173L650.114 290.248C646.162 306.705 641.907 328.29 636.908 353.644C618.072 449.189 588.681 598.271 525.178 728.255C520.768 737.281 516.889 745.332 513.353 752.672C498.133 784.262 489.255 802.69 471.691 829.045C450.174 861.335 420.8 887.867 395.606 901.513C370.166 915.292 336.646 917.08 309.286 901.551C282.386 886.282 255.52 855.048 228.622 805.027L226.61 800.779L228.121 800.131L231.444 806.778Z" fill="white" stroke="white" stroke-width="7.95136" stroke-linecap="square" stroke-linejoin="bevel"/>
<path fill-rule="evenodd" clip-rule="evenodd" d="M698.57 104.764C626.691 94.7685 537.258 120.779 459.243 223.706C538.55 119.075 623.987 85.8185 699.677 96.3444C775.089 106.832 839.603 160.632 877.614 227.627C915.611 294.599 927.626 375.667 896.778 441.183C865.795 506.987 791.98 547.22 661.889 550.76C789.975 547.275 859.935 499.516 889.131 437.507C918.463 375.21 907.347 297.144 870.276 231.804C833.218 166.488 770.726 114.799 698.57 104.764Z" fill="white" stroke="white" stroke-width="5.96352" stroke-linejoin="bevel"/>
</svg>
