<svg width="347" height="401" viewBox="0 0 347 401" fill="none" xmlns="http://www.w3.org/2000/svg">
<path fill-rule="evenodd" clip-rule="evenodd" d="M70.0085 131.952C67.0043 134.957 64.0004 140.02 64.0004 146.78L64 146.974C64 139.938 65.5021 133.455 68.5064 130.45C71.5107 127.446 75.9453 126.403 81.1616 126.033C86.353 125.665 92.5107 126.468 99.3231 127.861C105.637 129.153 112.609 130.974 120.005 132.906C120.601 133.062 121.2 133.218 121.801 133.375C153.948 141.762 198.291 154.443 228.326 131.249C228.663 130.989 229.164 131.196 229.204 131.621V131.621C229.223 131.824 229.122 132.022 228.948 132.128C194.524 153.115 160.028 146.632 121.081 136.459C120.485 136.303 121.67 136.613 121.081 136.459C113.663 134.521 105.005 131.534 98.7673 130.258C92.0226 128.878 86.8311 127.521 82.0256 127.861C77.245 128.2 73.0128 128.948 70.0085 131.952Z" fill="white"/>
<path d="M121.081 136.459C160.028 146.632 194.524 153.115 228.948 132.128C229.122 132.022 229.223 131.824 229.204 131.621V131.621C229.164 131.196 228.663 130.989 228.326 131.249C198.291 154.443 153.948 141.762 121.801 133.375C121.2 133.218 120.601 133.062 120.005 132.906C112.609 130.974 105.637 129.153 99.3231 127.861C92.5107 126.468 86.353 125.665 81.1616 126.033C75.9453 126.403 71.5107 127.446 68.5064 130.45C65.5021 133.455 64 139.938 64 146.974L64.0004 146.78C64.0004 140.02 67.0043 134.957 70.0085 131.952C73.0128 128.948 77.245 128.2 82.0256 127.861C86.8311 127.521 92.0226 128.878 98.7673 130.258C105.005 131.534 113.663 134.521 121.081 136.459ZM121.081 136.459C121.67 136.613 120.485 136.303 121.081 136.459Z" stroke="white" stroke-width="3.00427"/>
<path fill-rule="evenodd" clip-rule="evenodd" d="M221.785 142.977C222.743 138.99 223.468 135.974 223.946 134.154L224.85 131.952L230.623 132.143L229.757 135.679C229.303 137.413 228.602 140.33 227.67 144.211C222.016 167.754 214.183 226.978 189.817 276.852C182.771 291.274 180.17 297.553 173.57 307.456C166.971 317.359 157.952 325.522 150.145 329.751C142.132 334.091 131.558 334.671 122.888 329.751C114.461 324.968 106.202 315.283 98.0261 300.072L96.871 297.633L99.5158 296.499L101.027 299.522C109.717 316.524 118.407 323.325 125.709 325.727C133.06 328.146 138.954 328.055 145.287 324.625C151.827 321.083 158.368 314.143 164.758 304.555C171.113 295.018 177.148 283.123 182.771 270.005C202.071 224.988 216.073 166.738 221.785 142.977Z" fill="white"/>
<path fill-rule="evenodd" clip-rule="evenodd" d="M241.148 87.8656C219.422 84.8442 192.389 92.7063 168.808 123.817C192.78 92.1911 218.604 82.1389 241.483 85.3205C264.277 88.4904 283.777 104.752 295.267 125.003C306.752 145.246 310.384 169.75 301.059 189.553C291.694 209.443 269.383 221.604 230.061 222.674C268.777 221.621 289.923 207.185 298.748 188.442C307.614 169.612 304.254 146.015 293.049 126.265C281.847 106.522 262.958 90.8986 241.148 87.8656Z" fill="white" stroke="white" stroke-width="4.5064" stroke-linejoin="bevel"/>
<path d="M22.9215 266.937L6.55647 265.507C6.45533 265.504 6.36261 265.474 6.27832 265.415C6.20936 265.352 6.16109 265.275 6.13351 265.183C6.08753 265.03 6.09137 264.903 6.14501 264.804C6.19865 264.704 6.27681 264.631 6.37949 264.583C6.4362 264.549 6.51512 264.534 6.61627 264.537L23.6893 266.156C23.8257 266.165 23.9184 266.196 23.9674 266.248C24.0364 266.311 24.087 266.396 24.1192 266.503C24.1559 266.626 24.1552 266.734 24.1168 266.829C24.0939 266.92 24.041 266.994 23.9582 267.052L10.5951 277.801C10.5537 277.83 10.4947 277.856 10.4181 277.879C10.2802 277.921 10.1591 277.907 10.0549 277.838C9.9507 277.769 9.87791 277.666 9.83653 277.528C9.80435 277.42 9.79746 277.314 9.81585 277.208C9.85417 277.113 9.9147 277.036 9.99746 276.978L23.0019 266.538L22.9215 266.937ZM11.7149 265.664L12.731 265.71L14.9652 273.158L14.1147 273.664L11.7149 265.664Z" fill="white"/>
<path d="M13.38 286.934C13.3154 286.787 13.3077 286.651 13.3568 286.524C13.4124 286.412 13.4988 286.331 13.6159 286.279L28.1098 279.889C28.2269 279.837 28.3488 279.836 28.4753 279.885C28.6019 279.934 28.691 280.018 28.7426 280.135L31.2986 285.932C31.6795 286.796 31.8362 287.627 31.7688 288.426C31.7225 289.234 31.48 289.953 31.0411 290.583C30.6022 291.214 30.0021 291.697 29.2408 292.033C28.5673 292.33 27.9049 292.473 27.2535 292.463C26.6085 292.468 26.0062 292.331 25.4466 292.053C24.908 291.783 24.4356 291.406 24.0293 290.921L23.7596 289.833C24.0178 290.419 24.1093 291.043 24.0342 291.705C23.9738 292.361 23.725 292.987 23.2878 293.582C22.8653 294.17 22.2368 294.649 21.4023 295.016C20.6849 295.333 20.1488 295.604 19.794 295.83C19.4603 296.065 19.2282 296.272 19.0977 296.452C18.9736 296.647 18.8926 296.84 18.8547 297.031C18.8349 297.145 18.7907 297.243 18.7222 297.326C18.6537 297.409 18.5545 297.461 18.4245 297.483C18.3237 297.493 18.2279 297.474 18.1371 297.426C18.0673 297.387 18.009 297.334 17.9621 297.268C17.9152 297.201 17.8943 297.114 17.8995 297.007C17.9263 296.75 18.0116 296.468 18.1555 296.159C18.3058 295.866 18.5935 295.547 19.0185 295.202C19.4436 294.857 20.1026 294.488 20.9957 294.094C21.6838 293.791 22.1844 293.439 22.4975 293.039C22.8171 292.653 23.0124 292.243 23.0836 291.81C23.1612 291.391 23.1527 290.975 23.058 290.562C22.9699 290.164 22.858 289.811 22.7225 289.503L20.3698 284.167L20.7205 284.248L14.0225 287.201C13.9054 287.253 13.7835 287.254 13.657 287.205C13.5304 287.156 13.4381 287.066 13.38 286.934ZM21.2385 283.758L23.7268 289.402C24.0435 289.961 24.458 290.426 24.9703 290.794C25.4825 291.163 26.07 291.385 26.7326 291.46C27.4016 291.55 28.0948 291.436 28.8122 291.12C29.7053 290.726 30.3026 290.078 30.6042 289.176C30.9269 288.282 30.8494 287.293 30.3718 286.21L28.0288 280.895L28.2309 280.937L21.0938 284.084L21.2385 283.758Z" fill="white"/>
<path d="M29.5047 320.559C29.5714 320.668 29.5941 320.767 29.5728 320.855C29.5462 320.965 29.4782 321.053 29.369 321.12C29.1641 321.245 28.8952 321.249 28.5623 321.134C28.2241 321.04 27.8605 320.859 27.4716 320.59C27.069 320.33 26.6908 320.017 26.3368 319.652C25.9912 319.301 25.7017 318.934 25.4683 318.551C24.9766 317.746 24.6555 317.004 24.505 316.328C24.3492 315.673 24.2567 315.045 24.2275 314.445C24.193 313.866 24.1296 313.286 24.0375 312.705C23.9317 312.132 23.6829 311.525 23.2912 310.883C23.1412 310.637 22.9695 310.433 22.7762 310.269C22.5776 310.128 22.3983 310.003 22.2383 309.895C22.073 309.808 21.9529 309.703 21.8779 309.581C21.8112 309.471 21.7938 309.351 21.8258 309.219C21.8577 309.087 21.9352 308.983 22.0581 308.908C22.222 308.808 22.3839 308.813 22.5439 308.921L25.7039 311.519L26.9359 313.354L24.1149 310.943L24.2663 310.822C24.633 311.423 24.8734 312.017 24.9875 312.603C25.1017 313.19 25.176 313.772 25.2105 314.351C25.2397 314.952 25.3197 315.559 25.4505 316.172C25.5813 316.786 25.8468 317.421 26.2468 318.076C26.6052 318.664 26.983 319.099 27.3803 319.381C27.7775 319.663 28.1043 319.876 28.3605 320.02C28.5865 320.144 28.8121 320.222 29.0373 320.254C29.2572 320.307 29.413 320.408 29.5047 320.559ZM37.2317 314.1C36.1391 314.767 35.0379 315.205 33.9281 315.413C32.8266 315.636 31.7606 315.64 30.73 315.425C29.6994 315.21 28.7523 314.795 27.8888 314.179C27.0253 313.562 26.2894 312.755 25.681 311.758C25.0726 310.761 24.6917 309.738 24.5384 308.688C24.3852 307.638 24.4488 306.606 24.7293 305.591C25.0099 304.577 25.4967 303.624 26.1897 302.732C26.8911 301.854 27.7882 301.082 28.8808 300.415C29.9734 299.748 31.0705 299.304 32.1719 299.082C33.2817 298.873 34.3519 298.876 35.3825 299.091C36.4132 299.305 37.3602 299.721 38.2237 300.337C39.0872 300.954 39.8232 301.76 40.4316 302.757C41.04 303.754 41.4208 304.778 41.5741 305.828C41.7274 306.877 41.6637 307.91 41.3832 308.924C41.1027 309.939 40.6117 310.885 39.9103 311.763C39.2172 312.655 38.3244 313.434 37.2317 314.1ZM36.7067 313.24C38.0178 312.44 39.0068 311.48 39.6734 310.361C40.3484 309.256 40.6841 308.086 40.6803 306.851C40.6849 305.63 40.3288 304.432 39.6121 303.257C38.9037 302.096 38.0013 301.232 36.9049 300.664C35.8085 300.096 34.6103 299.852 33.3102 299.933C32.0185 300.028 30.717 300.476 29.4059 301.276C28.0947 302.076 27.1016 303.028 26.4266 304.134C25.7599 305.253 25.4285 306.43 25.4322 307.665C25.436 308.899 25.792 310.097 26.5004 311.258C27.2172 312.433 28.1196 313.297 29.2076 313.852C30.304 314.42 31.4981 314.656 32.7898 314.562C34.0899 314.481 35.3955 314.04 36.7067 313.24Z" fill="white"/>
<path d="M56.2049 324.8C56.2962 324.912 56.33 325.029 56.3065 325.151C56.2931 325.287 56.2369 325.395 56.1378 325.476L48.1181 332.047C47.2394 332.767 46.2575 333.209 45.1724 333.375C44.0997 333.53 43.0527 333.426 42.0313 333.063C41.01 332.7 40.1394 332.079 39.4194 331.2C38.6994 330.322 38.2568 329.34 38.0917 328.255C37.9367 327.182 38.0407 326.135 38.4035 325.114C38.7788 324.082 39.4058 323.206 40.2845 322.486L48.3042 315.915C48.4032 315.834 48.5152 315.794 48.6402 315.795C48.7753 315.809 48.8935 315.877 48.9949 316.001C49.0862 316.112 49.1251 316.235 49.1117 316.371C49.0983 316.506 49.0421 316.614 48.9431 316.695L40.9234 323.266C40.1808 323.874 39.6471 324.612 39.3224 325.478C39.0101 326.333 38.9167 327.217 39.0423 328.127C39.1904 329.04 39.5636 329.862 40.1619 330.592C40.7704 331.334 41.5025 331.862 42.3583 332.174C43.2265 332.476 44.1108 332.559 45.0113 332.421C45.9343 332.285 46.7671 331.913 47.5097 331.304L55.5294 324.733C55.6284 324.652 55.7404 324.612 55.8654 324.613C56.0005 324.626 56.1136 324.689 56.2049 324.8Z" fill="white"/>
<path d="M52.1255 344.106C52.0125 344.197 51.8881 344.242 51.7523 344.242C51.6166 344.242 51.5034 344.197 51.4127 344.107C51.2995 343.994 51.2427 343.869 51.2426 343.734C51.2537 343.609 51.3101 343.496 51.4118 343.394L62.5643 332.213C62.6659 332.111 62.7847 332.06 62.9204 332.06C63.0562 332.06 63.1751 332.111 63.277 332.212C63.379 332.314 63.43 332.433 63.4302 332.568C63.4304 332.704 63.3796 332.823 63.2779 332.925L52.1255 344.106Z" fill="white"/>
<path d="M62.8741 354.567C62.7633 354.475 62.7016 354.361 62.689 354.226C62.6888 354.101 62.7295 353.989 62.8113 353.891L72.8662 341.776L73.6049 342.389L63.55 354.504C63.4682 354.602 63.3598 354.658 63.2246 354.67C63.0894 354.683 62.9726 354.648 62.8741 354.567ZM68.5332 338.616C68.4347 338.535 68.3741 338.432 68.3513 338.309C68.3388 338.174 68.3734 338.057 68.4551 337.959C68.5369 337.86 68.6402 337.811 68.7652 337.811C68.9004 337.798 69.0172 337.833 69.1157 337.915L78.0911 345.364C78.1896 345.446 78.2451 345.554 78.2577 345.689C78.2805 345.812 78.251 345.923 78.1692 346.021C78.0773 346.132 77.9688 346.188 77.8438 346.188C77.7189 346.188 77.6071 346.147 77.5087 346.066L68.5332 338.616Z" fill="white"/>
<path d="M84.8307 350.235L92.41 355.177C92.5173 355.247 92.5849 355.348 92.6128 355.481C92.6408 355.614 92.6199 355.734 92.55 355.841C92.4713 355.962 92.3656 356.036 92.2327 356.064C92.1086 356.078 91.9929 356.051 91.8857 355.981L84.5477 351.196L84.9715 350.986L80.9081 357.218L80.8503 356.779L87.3239 361C87.4311 361.07 87.4987 361.171 87.5267 361.304C87.5547 361.437 87.5337 361.557 87.4638 361.664C87.3852 361.785 87.2794 361.859 87.1466 361.887C87.0225 361.902 86.9068 361.874 86.7996 361.804L80.3662 357.61L80.7115 357.52L76.5562 363.893L76.5414 363.74L83.7588 368.446C83.866 368.515 83.9336 368.617 83.9616 368.75C83.9896 368.883 83.9686 369.003 83.8987 369.11C83.8201 369.23 83.7143 369.305 83.5815 369.333C83.4574 369.347 83.3417 369.32 83.2345 369.25L75.6552 364.308C75.5479 364.238 75.4803 364.137 75.4524 364.004C75.4244 363.871 75.4453 363.751 75.5152 363.644L84.1665 350.375C84.2364 350.268 84.3378 350.2 84.4706 350.172C84.6035 350.144 84.7235 350.165 84.8307 350.235Z" fill="white"/>
<path d="M96.0038 376.263C95.8749 376.199 95.789 376.102 95.7459 375.973C95.7172 375.852 95.7314 375.734 95.7886 375.619L102.818 361.531L103.677 361.96L96.6476 376.048C96.5904 376.162 96.4975 376.241 96.3687 376.284C96.24 376.327 96.1183 376.32 96.0038 376.263ZM97.8787 359.443C97.7642 359.385 97.6818 359.3 97.6317 359.185C97.5886 359.056 97.5957 358.935 97.6528 358.82C97.71 358.706 97.7994 358.634 97.921 358.605C98.0497 358.562 98.1714 358.569 98.2859 358.627L108.723 363.834C108.837 363.891 108.916 363.984 108.959 364.113C109.009 364.227 109.006 364.342 108.949 364.456C108.885 364.585 108.792 364.664 108.67 364.693C108.548 364.722 108.43 364.707 108.316 364.65L97.8787 359.443Z" fill="white"/>
<path d="M126.985 370.803C127.121 370.85 127.211 370.932 127.255 371.049C127.314 371.172 127.322 371.293 127.28 371.414L123.861 381.202C123.486 382.275 122.879 383.164 122.039 383.871C121.204 384.562 120.256 385.019 119.196 385.242C118.135 385.464 117.068 385.388 115.996 385.014C114.923 384.639 114.034 384.032 113.327 383.192C112.636 382.357 112.179 381.41 111.956 380.349C111.739 379.273 111.817 378.199 112.192 377.126L115.611 367.338C115.653 367.217 115.728 367.125 115.835 367.061C115.957 367.002 116.094 366.999 116.245 367.051C116.381 367.099 116.479 367.184 116.538 367.306C116.597 367.428 116.605 367.55 116.563 367.671L113.144 377.459C112.827 378.365 112.756 379.272 112.93 380.181C113.11 381.074 113.49 381.876 114.072 382.588C114.674 383.29 115.421 383.796 116.312 384.108C117.219 384.424 118.118 384.493 119.012 384.313C119.91 384.119 120.708 383.728 121.404 383.141C122.121 382.544 122.638 381.792 122.954 380.886L126.373 371.098C126.416 370.977 126.49 370.884 126.597 370.82C126.72 370.761 126.849 370.755 126.985 370.803Z" fill="white"/>
<path d="M133.028 389.871C132.871 389.839 132.756 389.765 132.681 389.652C132.623 389.541 132.606 389.424 132.633 389.298L135.878 373.794C135.904 373.669 135.974 373.569 136.088 373.495C136.202 373.421 136.321 373.397 136.446 373.423L142.648 374.721C143.572 374.914 144.339 375.271 144.949 375.791C145.579 376.299 146.022 376.915 146.279 377.639C146.536 378.363 146.579 379.132 146.409 379.946C146.258 380.667 145.989 381.289 145.602 381.813C145.23 382.34 144.768 382.75 144.216 383.043C143.683 383.324 143.101 383.488 142.47 383.536L141.429 383.121C142.055 383.253 142.616 383.542 143.111 383.988C143.609 384.42 143.973 384.986 144.202 385.688C144.434 386.374 144.457 387.164 144.27 388.056C144.109 388.824 144.018 389.417 143.995 389.838C143.992 390.246 144.025 390.555 144.095 390.766C144.181 390.98 144.291 391.158 144.425 391.301C144.505 391.383 144.559 391.476 144.587 391.58C144.614 391.684 144.599 391.795 144.541 391.914C144.49 392.001 144.419 392.068 144.328 392.114C144.255 392.148 144.178 392.165 144.097 392.164C144.015 392.163 143.932 392.129 143.848 392.063C143.655 391.892 143.475 391.658 143.308 391.361C143.157 391.068 143.065 390.648 143.033 390.102C143 389.556 143.083 388.805 143.283 387.85C143.437 387.114 143.443 386.502 143.3 386.014C143.172 385.53 142.953 385.132 142.642 384.822C142.347 384.515 142.004 384.28 141.613 384.116C141.238 383.956 140.886 383.841 140.557 383.773L134.849 382.578L135.119 382.34L133.619 389.505C133.593 389.63 133.523 389.73 133.409 389.804C133.296 389.878 133.169 389.901 133.028 389.871ZM135.022 381.633L141.059 382.897C141.699 382.965 142.317 382.899 142.915 382.697C143.513 382.495 144.036 382.147 144.483 381.652C144.945 381.16 145.257 380.531 145.417 379.763C145.617 378.808 145.438 377.945 144.881 377.174C144.342 376.391 143.493 375.879 142.334 375.636L136.649 374.446L136.801 374.306L135.203 381.941L135.022 381.633Z" fill="white"/>
<path d="M160.284 378.454L152.974 393.166C152.934 393.259 152.872 393.334 152.787 393.391C152.703 393.432 152.614 393.449 152.518 393.441C152.358 393.428 152.242 393.378 152.169 393.292C152.096 393.205 152.056 393.106 152.049 392.993C152.039 392.928 152.053 392.849 152.093 392.756L159.837 377.454C159.895 377.33 159.958 377.255 160.024 377.229C160.108 377.187 160.205 377.171 160.317 377.181C160.445 377.191 160.546 377.232 160.62 377.302C160.696 377.356 160.746 377.433 160.77 377.531L165.894 393.897C165.906 393.946 165.909 394.011 165.902 394.091C165.89 394.234 165.833 394.342 165.731 394.414C165.628 394.485 165.506 394.515 165.362 394.504C165.25 394.494 165.149 394.462 165.057 394.406C164.983 394.336 164.933 394.251 164.909 394.153L159.941 378.233L160.284 378.454ZM155.004 388.421L155.418 387.492L163.168 388.133L163.328 389.109L155.004 388.421Z" fill="white"/>
<path d="M185.791 377.337L194.788 376.379C194.915 376.365 195.031 376.401 195.137 376.486C195.243 376.572 195.302 376.678 195.316 376.805C195.331 376.948 195.296 377.073 195.211 377.179C195.124 377.268 195.017 377.32 194.889 377.333L186.179 378.261L186.374 377.83L187.162 385.228L186.84 384.925L194.525 384.106C194.652 384.093 194.768 384.128 194.874 384.214C194.98 384.299 195.039 384.405 195.053 384.533C195.068 384.676 195.033 384.8 194.948 384.906C194.861 384.996 194.754 385.047 194.626 385.061L186.99 385.874L187.2 385.586L188.006 393.152L187.898 393.042L196.465 392.13C196.593 392.116 196.709 392.152 196.815 392.237C196.92 392.323 196.98 392.429 196.994 392.556C197.009 392.699 196.974 392.824 196.889 392.929C196.802 393.019 196.694 393.071 196.567 393.084L187.57 394.043C187.443 394.056 187.326 394.02 187.221 393.935C187.115 393.85 187.055 393.744 187.042 393.616L185.364 377.865C185.35 377.738 185.386 377.622 185.472 377.516C185.557 377.41 185.663 377.351 185.791 377.337Z" fill="white"/>
<path d="M218.905 387.945C218.927 388.088 218.904 388.218 218.837 388.336C218.769 388.454 218.674 388.53 218.55 388.563C218.396 388.605 218.26 388.592 218.142 388.525C218.04 388.453 217.97 388.348 217.932 388.209L213.791 372.969C213.753 372.831 213.768 372.702 213.836 372.584C213.903 372.466 214.006 372.389 214.145 372.351C214.284 372.313 214.413 372.328 214.531 372.396C214.648 372.463 214.726 372.566 214.764 372.705L218.905 387.945Z" fill="white"/>
<path d="M234.256 365.502C234.391 365.45 234.513 365.455 234.622 365.516C234.725 365.562 234.799 365.645 234.845 365.764L240.499 380.535C240.562 380.7 240.558 380.847 240.488 380.977C240.426 381.086 240.336 381.163 240.217 381.209C240.157 381.232 240.084 381.242 239.998 381.241C239.927 381.234 239.857 381.209 239.789 381.167L223.95 370.936L224.204 370.659L229.626 384.825C229.666 384.93 229.655 385.037 229.594 385.146C229.548 385.249 229.465 385.324 229.346 385.369C229.211 385.421 229.092 385.424 228.989 385.377C228.886 385.331 228.814 385.256 228.774 385.151L223.086 370.291C223.023 370.126 223.025 369.997 223.092 369.903C223.153 369.794 223.228 369.722 223.318 369.688C223.378 369.665 223.443 369.657 223.515 369.664C223.58 369.656 223.647 369.674 223.714 369.716L239.474 379.874L239.467 380.391L233.993 366.09C233.948 365.971 233.955 365.857 234.016 365.748C234.072 365.624 234.152 365.542 234.256 365.502Z" fill="white"/>
<path d="M254.662 374.244C254.535 374.312 254.406 374.327 254.277 374.288C254.161 374.241 254.072 374.161 254.012 374.048L246.571 360.174L247.417 359.72L254.858 373.594C254.918 373.707 254.929 373.829 254.89 373.959C254.851 374.089 254.775 374.184 254.662 374.244ZM242.013 362.999C241.9 363.06 241.783 363.078 241.66 363.052C241.53 363.013 241.435 362.937 241.374 362.824C241.314 362.712 241.307 362.597 241.354 362.481C241.393 362.351 241.469 362.256 241.582 362.196L251.861 356.683C251.974 356.622 252.095 356.612 252.225 356.651C252.347 356.676 252.439 356.745 252.499 356.858C252.567 356.985 252.578 357.106 252.531 357.222C252.485 357.338 252.405 357.426 252.292 357.486L242.013 362.999Z" fill="white"/>
<path d="M258.91 352.271L266.34 347.108C266.446 347.035 266.565 347.011 266.699 347.035C266.832 347.059 266.935 347.123 267.009 347.229C267.091 347.347 267.12 347.473 267.096 347.606C267.062 347.727 266.993 347.824 266.888 347.897L259.694 352.895L259.659 352.423L263.904 358.533L263.476 358.421L269.822 354.012C269.927 353.939 270.047 353.914 270.18 353.938C270.314 353.962 270.417 354.027 270.49 354.132C270.572 354.25 270.601 354.376 270.577 354.51C270.544 354.63 270.475 354.727 270.37 354.8L264.063 359.182L264.109 358.829L268.451 365.076L268.303 365.033L275.379 360.116C275.484 360.043 275.603 360.019 275.737 360.043C275.871 360.067 275.974 360.131 276.047 360.237C276.129 360.355 276.158 360.481 276.134 360.614C276.101 360.735 276.032 360.832 275.927 360.905L268.496 366.068C268.391 366.141 268.272 366.165 268.138 366.141C268.005 366.117 267.901 366.052 267.828 365.947L258.79 352.939C258.717 352.834 258.692 352.715 258.716 352.581C258.74 352.448 258.805 352.344 258.91 352.271Z" fill="white"/>
<path d="M284.058 354.525C283.939 354.631 283.811 354.68 283.676 354.672C283.552 354.653 283.448 354.596 283.363 354.5L272.857 342.646C272.772 342.55 272.734 342.434 272.742 342.299C272.75 342.163 272.802 342.053 272.898 341.968L277.639 337.766C278.346 337.14 279.09 336.737 279.871 336.557C280.654 336.355 281.413 336.367 282.148 336.592C282.882 336.818 283.525 337.242 284.077 337.865C284.565 338.416 284.904 339.003 285.093 339.626C285.294 340.239 285.347 340.854 285.254 341.472C285.161 342.067 284.946 342.632 284.607 343.167L283.654 343.756C284.133 343.331 284.699 343.054 285.353 342.923C285.996 342.781 286.668 342.827 287.368 343.062C288.057 343.285 288.704 343.737 289.309 344.42C289.829 345.007 290.251 345.434 290.575 345.703C290.9 345.95 291.168 346.107 291.379 346.177C291.603 346.236 291.811 346.254 292.005 346.232C292.119 346.216 292.226 346.228 292.326 346.268C292.426 346.308 292.506 346.386 292.567 346.503C292.607 346.596 292.618 346.693 292.6 346.794C292.584 346.873 292.552 346.945 292.502 347.01C292.453 347.075 292.377 347.121 292.273 347.149C292.02 347.202 291.725 347.206 291.388 347.163C291.062 347.11 290.671 346.933 290.213 346.633C289.755 346.334 289.202 345.819 288.555 345.088C288.056 344.526 287.568 344.156 287.091 343.98C286.627 343.793 286.177 343.732 285.742 343.797C285.32 343.851 284.926 343.986 284.562 344.202C284.21 344.407 283.908 344.621 283.656 344.844L279.292 348.712L279.262 348.353L284.117 353.832C284.202 353.927 284.24 354.043 284.232 354.178C284.224 354.314 284.166 354.43 284.058 354.525ZM278.637 348.01L283.253 343.919C283.689 343.446 284.005 342.91 284.2 342.31C284.395 341.709 284.427 341.082 284.296 340.428C284.178 339.764 283.859 339.138 283.339 338.551C282.691 337.821 281.892 337.45 280.94 337.438C279.99 337.403 279.072 337.778 278.186 338.564L273.84 342.416L273.818 342.211L278.992 348.048L278.637 348.01Z" fill="white"/>
<path d="M299.441 339.145C299.535 339.255 299.584 339.377 299.589 339.513C299.594 339.649 299.552 339.763 299.465 339.857C299.356 339.974 299.233 340.035 299.098 340.039C298.973 340.032 298.858 339.98 298.753 339.881L287.212 329.102C287.106 329.004 287.052 328.887 287.047 328.751C287.042 328.615 287.089 328.495 287.187 328.39C287.286 328.284 287.403 328.229 287.538 328.225C287.674 328.22 287.795 328.267 287.9 328.365L299.441 339.145Z" fill="white"/>
<path d="M308.966 314.933C309.987 315.706 310.797 316.57 311.398 317.527C312.008 318.47 312.401 319.461 312.579 320.498C312.757 321.536 312.717 322.57 312.459 323.599C312.202 324.628 311.72 325.608 311.015 326.539C310.31 327.47 309.497 328.2 308.576 328.726C307.655 329.253 306.672 329.572 305.625 329.682C304.578 329.793 303.513 329.689 302.429 329.37C301.356 329.039 300.308 328.487 299.288 327.714C298.268 326.941 297.452 326.083 296.842 325.139C296.242 324.183 295.853 323.186 295.675 322.148C295.498 321.111 295.538 320.077 295.795 319.048C296.053 318.019 296.534 317.039 297.239 316.108C297.944 315.176 298.757 314.447 299.678 313.92C300.599 313.393 301.583 313.075 302.63 312.964C303.677 312.854 304.737 312.965 305.811 313.296C306.894 313.615 307.946 314.16 308.966 314.933ZM308.358 315.737C307.133 314.809 305.878 314.24 304.593 314.03C303.317 313.806 302.105 313.922 300.958 314.378C299.82 314.82 298.835 315.59 298.005 316.687C297.184 317.771 296.709 318.928 296.582 320.156C296.455 321.384 296.667 322.588 297.218 323.768C297.779 324.936 298.672 325.983 299.897 326.91C301.121 327.838 302.371 328.413 303.647 328.637C304.932 328.847 306.149 328.725 307.297 328.269C308.444 327.814 309.429 327.044 310.25 325.96C311.081 324.863 311.555 323.707 311.672 322.491C311.8 321.263 311.583 320.065 311.022 318.898C310.47 317.718 309.582 316.664 308.358 315.737Z" fill="white"/>
<path d="M321.056 311.485C320.977 311.624 320.872 311.712 320.742 311.748C320.619 311.771 320.501 311.75 320.39 311.687L306.608 303.879C306.497 303.816 306.423 303.719 306.387 303.588C306.351 303.457 306.364 303.336 306.427 303.225L309.551 297.712C310.016 296.891 310.589 296.268 311.27 295.845C311.945 295.4 312.667 295.165 313.435 295.14C314.203 295.116 314.949 295.309 315.673 295.719C316.313 296.082 316.824 296.527 317.205 297.056C317.594 297.57 317.844 298.135 317.955 298.75C318.06 299.343 318.04 299.947 317.893 300.563L317.182 301.429C317.497 300.872 317.943 300.426 318.52 300.09C319.082 299.747 319.732 299.573 320.471 299.568C321.195 299.555 321.954 299.774 322.747 300.223C323.429 300.61 323.967 300.878 324.361 301.027C324.748 301.155 325.053 301.217 325.275 301.214C325.505 301.198 325.709 301.147 325.885 301.063C325.988 301.011 326.093 300.988 326.2 300.994C326.307 300.999 326.409 301.047 326.504 301.138C326.572 301.214 326.614 301.302 326.63 301.403C326.641 301.482 326.633 301.561 326.607 301.638C326.582 301.716 326.525 301.784 326.436 301.844C326.214 301.976 325.936 302.076 325.603 302.145C325.278 302.2 324.85 302.16 324.32 302.025C323.789 301.89 323.1 301.582 322.25 301.1C321.596 300.73 321.015 300.538 320.507 300.526C320.007 300.5 319.561 300.588 319.171 300.79C318.789 300.978 318.46 301.233 318.186 301.556C317.919 301.865 317.703 302.165 317.537 302.457L314.662 307.532L314.518 307.202L320.887 310.81C320.998 310.873 321.072 310.97 321.108 311.101C321.145 311.232 321.127 311.36 321.056 311.485ZM313.815 307.079L316.856 301.713C317.115 301.124 317.24 300.515 317.23 299.884C317.22 299.252 317.047 298.649 316.711 298.073C316.384 297.482 315.879 296.994 315.197 296.608C314.347 296.126 313.471 296.034 312.567 296.331C311.657 296.607 310.91 297.259 310.327 298.29L307.464 303.343L307.377 303.156L314.163 307.001L313.815 307.079Z" fill="white"/>
<path d="M315.451 286.087L318.954 277.744C319.003 277.626 319.091 277.542 319.217 277.49C319.342 277.439 319.464 277.438 319.582 277.488C319.715 277.543 319.807 277.634 319.858 277.76C319.895 277.879 319.889 277.998 319.839 278.116L316.447 286.193L316.164 285.814L323.024 288.694L322.603 288.83L325.595 281.704C325.644 281.586 325.732 281.502 325.857 281.45C325.983 281.399 326.105 281.398 326.223 281.448C326.356 281.503 326.448 281.594 326.499 281.72C326.536 281.839 326.529 281.958 326.48 282.076L323.506 289.157L323.356 288.834L330.37 291.779L330.223 291.821L333.558 283.877C333.608 283.759 333.696 283.674 333.821 283.623C333.947 283.572 334.069 283.571 334.187 283.62C334.32 283.676 334.412 283.767 334.463 283.893C334.5 284.012 334.493 284.131 334.444 284.249L330.941 292.591C330.891 292.709 330.803 292.794 330.678 292.845C330.552 292.897 330.43 292.897 330.312 292.848L315.708 286.715C315.589 286.666 315.505 286.578 315.453 286.452C315.402 286.327 315.401 286.205 315.451 286.087Z" fill="white"/>
<path d="M339.18 270.85C338.844 272.052 338.343 273.022 337.676 273.76C337.009 274.498 336.159 275.149 335.127 275.713C335.087 275.735 335.039 275.754 334.984 275.771C334.914 275.784 334.833 275.777 334.741 275.75C334.618 275.714 334.518 275.626 334.442 275.487C334.351 275.344 334.324 275.211 334.36 275.088C334.4 274.95 334.508 274.839 334.682 274.757C335.568 274.35 336.315 273.794 336.922 273.089C337.534 272.368 337.971 271.562 338.232 270.672C338.462 269.889 338.544 269.154 338.479 268.468C338.398 267.777 338.179 267.188 337.823 266.699C337.45 266.207 336.949 265.868 336.32 265.683C335.533 265.469 334.84 265.499 334.242 265.774C333.645 266.048 333.096 266.471 332.595 267.041C332.098 267.595 331.614 268.195 331.141 268.84C330.759 269.345 330.372 269.84 329.98 270.325C329.587 270.81 329.164 271.228 328.711 271.579C328.243 271.925 327.725 272.156 327.157 272.273C326.574 272.385 325.914 272.333 325.177 272.117C324.424 271.896 323.807 271.498 323.326 270.923C322.833 270.328 322.521 269.603 322.389 268.747C322.246 267.871 322.327 266.912 322.634 265.868C322.891 264.992 323.302 264.188 323.868 263.453C324.418 262.715 325.078 262.199 325.847 261.908C326.107 261.818 326.291 261.788 326.398 261.82C326.506 261.852 326.595 261.945 326.667 262.099C326.743 262.238 326.76 262.377 326.72 262.515C326.684 262.637 326.608 262.724 326.494 262.773C326.044 262.942 325.63 263.187 325.252 263.51C324.863 263.812 324.527 264.189 324.245 264.64C323.947 265.086 323.717 265.585 323.555 266.138C323.334 266.89 323.256 267.609 323.322 268.296C323.387 268.982 323.596 269.577 323.948 270.08C324.286 270.58 324.784 270.926 325.444 271.12C326.15 271.327 326.792 271.299 327.37 271.035C327.937 270.751 328.466 270.339 328.958 269.8C329.435 269.256 329.893 268.69 330.332 268.102C330.703 267.578 331.095 267.067 331.507 266.571C331.908 266.056 332.353 265.619 332.842 265.262C333.334 264.89 333.89 264.645 334.509 264.526C335.127 264.407 335.843 264.468 336.657 264.706C337.363 264.914 337.955 265.312 338.432 265.903C338.913 266.478 339.23 267.188 339.382 268.033C339.534 268.878 339.467 269.817 339.18 270.85Z" fill="white"/>
<path d="M39.4915 80.6971C38.7753 81.4065 37.936 81.8437 36.9735 82.0088C36.011 82.1739 35.0611 82.0788 34.1238 81.7236C33.9656 81.6776 33.8471 81.6148 33.7683 81.5353C33.6219 81.3875 33.5662 81.2175 33.601 81.0253C33.6246 80.8218 33.6933 80.6637 33.8069 80.5511C33.9206 80.4385 34.0397 80.3769 34.1642 80.3662C34.3001 80.3442 34.4359 80.3448 34.5715 80.3681C35.2604 80.6316 35.9558 80.7085 36.6578 80.5987C37.3598 80.4889 37.9666 80.1807 38.4781 79.674C39.001 79.1561 39.3544 78.5921 39.5384 77.982C39.7111 77.3606 39.7084 76.744 39.5303 76.1322C39.3635 75.5091 39.0268 74.9418 38.5202 74.4303L30.6498 66.4842C30.5147 66.3478 30.4476 66.1778 30.4486 65.9742C30.461 65.7592 30.541 65.5786 30.6888 65.4322C30.848 65.2746 31.0237 65.2019 31.2159 65.2141C31.4196 65.2151 31.589 65.2838 31.7241 65.4202L39.5944 73.3663C40.2925 74.0711 40.7583 74.8596 40.9917 75.7319C41.2138 76.5928 41.204 77.4583 40.9623 78.3283C40.7093 79.1869 40.219 79.9765 39.4915 80.6971Z" fill="white"/>
<path d="M48.841 49.9189C49.0161 49.7792 49.1986 49.7257 49.3885 49.7584C49.5683 49.7786 49.7231 49.87 49.8529 50.0326L56.05 57.7992C56.7884 58.7247 57.2382 59.7373 57.3992 60.8369C57.5602 61.9366 57.4514 63.0059 57.0728 64.045C56.6842 65.0715 56.0271 65.9539 55.1016 66.6924C54.1761 67.4309 53.1636 67.8806 52.0639 68.0416C50.9667 68.1802 49.8999 68.0489 48.8634 67.6478C47.827 67.2466 46.9395 66.5833 46.201 65.6578L40.0039 57.8912C39.8742 57.7287 39.8194 57.5574 39.8397 57.3775C39.8624 57.1752 39.9676 56.9991 40.1552 56.8494C40.3053 56.7297 40.4815 56.6812 40.6839 56.7039C40.8763 56.7142 41.0373 56.8006 41.167 56.9632L47.3641 64.7298C47.9429 65.4552 48.6307 65.9708 49.4274 66.2766C50.2366 66.5725 51.0686 66.666 51.9233 66.5572C52.7681 66.4358 53.5281 66.1057 54.2035 65.5668C54.9039 65.008 55.407 64.3302 55.7128 63.5335C56.0087 62.7242 56.096 61.8973 55.9746 61.0525C55.8658 60.1978 55.5219 59.4077 54.9431 58.6824L48.746 50.9158C48.6163 50.7532 48.5616 50.5819 48.5818 50.4021C48.592 50.2097 48.6784 50.0486 48.841 49.9189Z" fill="white"/>
<path d="M75.2002 50.6012C75.3619 50.4977 75.5423 50.4679 75.7412 50.5116C75.9314 50.5419 76.0783 50.6379 76.1817 50.7997C76.2938 50.9749 76.3279 51.162 76.2842 51.3609C76.2318 51.5463 76.1247 51.6907 75.963 51.7942L68.7444 56.4096C68.5691 56.5217 68.3821 56.5558 68.1832 56.5121C67.9978 56.4597 67.8533 56.3526 67.7499 56.1909L59.4757 43.25C59.3723 43.0882 59.3424 42.9079 59.3862 42.709C59.4299 42.5101 59.5462 42.3503 59.7349 42.2297C59.8966 42.1262 60.077 42.0964 60.2759 42.1401C60.4882 42.1753 60.6461 42.2737 60.7496 42.4355L68.8686 55.1337L68.2647 55.0356L75.2002 50.6012Z" fill="white"/>
<path d="M84.3377 46.2522C84.4224 46.4429 84.4286 46.6395 84.3562 46.8422C84.2978 47.0374 84.1842 47.1805 84.0152 47.2717C83.8181 47.3781 83.622 47.4021 83.4269 47.3438C83.2458 47.2779 83.1059 47.1534 83.0071 46.9703L75.7348 33.4955C75.636 33.3125 75.6158 33.1234 75.6741 32.9283C75.7325 32.7331 75.8602 32.5824 76.0573 32.476C76.2263 32.3848 76.4083 32.3684 76.6034 32.4267C76.8126 32.4775 76.9666 32.5943 77.0654 32.7774L84.3377 46.2522Z" fill="white"/>
<path d="M92.0481 26.7209L92.5287 42.3387C92.5343 42.511 92.5019 42.6562 92.4315 42.7745C92.361 42.8927 92.2599 42.9807 92.128 43.0386C91.9228 43.1285 91.7465 43.1447 91.5989 43.0871C91.445 43.0149 91.3253 42.9014 91.24 42.7466C91.1932 42.6798 91.162 42.5886 91.1463 42.4732L90.7225 25.7299C90.725 25.5366 90.7648 25.3881 90.8416 25.2845C90.9267 25.1599 91.0425 25.0654 91.1891 25.0011C91.3356 24.9369 91.4794 24.9262 91.6206 24.9692C91.7699 24.991 91.9028 25.055 92.0192 25.1612L103.997 36.7591C104.065 36.8342 104.118 36.9157 104.157 37.0036C104.247 37.2088 104.252 37.3989 104.171 37.5739C104.084 37.7343 103.953 37.8531 103.777 37.9302C103.631 37.9944 103.483 38.0156 103.333 37.9938C103.192 37.9508 103.063 37.8763 102.947 37.7701L91.6139 26.8065L92.0481 26.7209ZM92.0396 37.7574L92.0205 36.2197L98.8341 33.2318L99.6665 34.4129L92.0396 37.7574Z" fill="white"/>
<path d="M118.77 15.105C118.969 15.0433 119.14 15.057 119.285 15.146C119.445 15.2303 119.554 15.3642 119.611 15.5475L124.165 30.2168C124.236 30.4461 124.217 30.6531 124.107 30.8381C124.007 31.003 123.866 31.114 123.682 31.1709C123.591 31.1994 123.487 31.2149 123.37 31.2176C123.249 31.2049 123.146 31.1699 123.061 31.1125L108.562 20.5107L108.887 20.1835L113.107 33.7755C113.159 33.9436 113.143 34.1078 113.059 34.268C112.975 34.4282 112.841 34.5367 112.657 34.5936C112.459 34.6553 112.279 34.644 112.119 34.5597C111.974 34.4707 111.876 34.3421 111.823 34.174L107.248 19.4359C107.177 19.2067 107.193 19.0173 107.298 18.8676C107.397 18.7027 107.531 18.5941 107.699 18.5419C107.791 18.5135 107.897 18.5056 108.018 18.5182C108.135 18.5156 108.238 18.5506 108.328 18.6233L122.662 29.1002L122.561 29.5839L118.327 15.946C118.27 15.7626 118.284 15.5909 118.368 15.4307C118.468 15.2657 118.602 15.1572 118.77 15.105Z" fill="white"/>
<path d="M136.53 12.8813L133.522 28.2142C133.489 28.3834 133.425 28.5178 133.33 28.6174C133.235 28.717 133.117 28.7803 132.975 28.8073C132.755 28.8493 132.58 28.8259 132.449 28.7369C132.315 28.6322 132.223 28.4949 132.174 28.325C132.144 28.2494 132.134 28.1536 132.144 28.0376L135.458 11.6201C135.503 11.4322 135.575 11.2963 135.673 11.2124C135.784 11.1098 135.918 11.0435 136.075 11.0135C136.232 10.9834 136.375 11.0051 136.503 11.0783C136.644 11.1329 136.759 11.2249 136.849 11.3543L145.945 25.3277C145.994 25.416 146.028 25.5073 146.046 25.6016C146.088 25.8216 146.05 26.008 145.933 26.1607C145.812 26.2978 145.658 26.3843 145.469 26.4203C145.312 26.4503 145.163 26.4381 145.022 26.3835C144.894 26.3102 144.785 26.2089 144.695 26.0795L136.087 12.8681L136.53 12.8813ZM134.065 23.639L134.388 22.1356L141.696 20.7394L142.245 22.0762L134.065 23.639Z" fill="white"/>
<path d="M172.026 7.34356C172.922 7.32299 173.719 7.51275 174.416 7.91285C175.113 8.29695 175.67 8.84431 176.086 9.55494C176.502 10.2656 176.721 11.0848 176.743 12.0125C176.764 12.9403 176.583 13.7846 176.201 14.5456C175.818 15.2906 175.287 15.887 174.609 16.3346C173.931 16.7823 173.145 17.0164 172.249 17.037L167.162 17.1538L167.277 16.9111L167.429 23.5334C167.433 23.7253 167.365 23.8949 167.224 24.0422C167.084 24.1895 166.917 24.2653 166.725 24.2697C166.501 24.2749 166.324 24.2069 166.193 24.0659C166.061 23.9249 165.993 23.7584 165.989 23.5664L165.636 8.21048C165.632 8.01853 165.7 7.84892 165.841 7.70165C165.981 7.55439 166.148 7.47855 166.34 7.47414L172.026 7.34356ZM172.217 15.6454C172.841 15.631 173.381 15.4666 173.838 15.152C174.294 14.8215 174.645 14.3893 174.888 13.8556C175.148 13.3055 175.27 12.7025 175.255 12.0467C175.24 11.3908 175.091 10.8181 174.807 10.3285C174.54 9.82251 174.171 9.43088 173.7 9.15361C173.23 8.87634 172.683 8.74486 172.059 8.75919L166.972 8.87599L167.087 8.6573L167.253 15.9034L167.106 15.7627L172.217 15.6454Z" fill="white"/>
<path d="M192.508 9.84507L185.514 23.8172C185.437 23.9715 185.339 24.0839 185.221 24.1545C185.103 24.2251 184.972 24.2546 184.829 24.2428C184.606 24.2245 184.443 24.155 184.34 24.0343C184.239 23.8976 184.188 23.7409 184.186 23.5641C184.177 23.4831 184.192 23.3881 184.233 23.279L191.813 8.34333C191.907 8.17444 192.012 8.06267 192.129 8.00801C192.263 7.93871 192.41 7.91059 192.569 7.92364C192.729 7.93668 192.86 7.99561 192.964 8.10043C193.085 8.1906 193.172 8.31005 193.224 8.45879L198.256 24.3541C198.28 24.4524 198.289 24.5494 198.281 24.6451C198.263 24.8683 198.176 25.0378 198.022 25.1537C197.87 25.2536 197.698 25.2957 197.506 25.28C197.347 25.267 197.207 25.2154 197.086 25.1252C196.982 25.0204 196.904 24.8936 196.852 24.7449L192.086 9.71416L192.508 9.84507ZM187.259 19.5534L187.973 18.191L195.388 18.7977L195.56 20.2325L187.259 19.5534Z" fill="white"/>
<path d="M210.776 27.5769C209.577 27.3705 208.574 26.9889 207.766 26.432C206.958 25.875 206.226 25.1288 205.57 24.1932C205.503 24.1157 205.447 24.0239 205.401 23.9178C205.372 23.8146 205.369 23.7001 205.392 23.5743C205.427 23.3855 205.53 23.2256 205.701 23.0946C205.887 22.9665 206.075 22.92 206.264 22.9551C206.453 22.9902 206.611 23.101 206.739 23.2875C207.23 24.0622 207.828 24.6941 208.535 25.1834C209.257 25.6756 210.067 26.005 210.963 26.1715C211.718 26.3118 212.409 26.318 213.035 26.1902C213.676 26.0653 214.211 25.8147 214.639 25.4386C215.067 25.0624 215.335 24.5833 215.443 24.0012C215.578 23.2776 215.489 22.659 215.178 22.1455C214.869 21.6163 214.419 21.1502 213.826 20.7472C213.237 20.3285 212.571 19.9281 211.828 19.546C211.218 19.2374 210.644 18.9111 210.106 18.567C209.571 18.2072 209.107 17.8119 208.715 17.3811C208.326 16.9345 208.054 16.4283 207.899 15.8624C207.743 15.2965 207.735 14.6439 207.872 13.9046C208.027 13.0708 208.384 12.3724 208.945 11.8092C209.505 11.2461 210.22 10.8581 211.089 10.6454C211.977 10.4198 212.956 10.4064 214.026 10.6051C214.954 10.7775 215.814 11.0999 216.605 11.5723C217.411 12.0477 218.01 12.6389 218.399 13.3459C218.588 13.6414 218.664 13.8914 218.626 14.0959C218.597 14.2532 218.489 14.3959 218.302 14.524C218.116 14.6521 217.928 14.6986 217.739 14.6635C217.582 14.6343 217.458 14.5544 217.369 14.4238C217.163 14.0438 216.879 13.69 216.516 13.3623C216.157 13.0189 215.739 12.7296 215.262 12.4945C214.8 12.2624 214.302 12.0966 213.767 11.9973C213.028 11.8599 212.338 11.8537 211.696 11.9786C211.073 12.0907 210.549 12.327 210.124 12.6874C209.715 13.0508 209.455 13.5314 209.344 14.1291C209.221 14.7898 209.309 15.3676 209.607 15.8625C209.906 16.3574 210.336 16.8034 210.897 17.2005C211.461 17.5819 212.067 17.9548 212.715 18.3194C213.356 18.6338 213.96 18.9739 214.527 19.3395C215.113 19.6924 215.608 20.0935 216.012 20.543C216.433 20.9954 216.726 21.5218 216.891 22.122C217.072 22.7252 217.085 23.4437 216.93 24.2774C216.781 25.0797 216.418 25.7609 215.842 26.3211C215.266 26.8814 214.542 27.2757 213.67 27.5042C212.813 27.7356 211.848 27.7599 210.776 27.5769Z" fill="white"/>
<path d="M239.607 36.2165C239.775 36.2674 239.904 36.3649 239.994 36.5092C240.08 36.6687 240.095 36.8404 240.039 37.0242C239.961 37.2845 239.747 37.4956 239.397 37.6574C239.063 37.8238 238.643 37.9395 238.139 38.0044C237.645 38.0893 237.137 38.1113 236.615 38.0705C236.103 38.0496 235.632 37.9743 235.204 37.8448C234.3 37.5718 233.572 37.2432 233.019 36.859C232.467 36.4748 232 36.0832 231.619 35.684C231.238 35.2848 230.841 34.9139 230.426 34.5714C230.011 34.2288 229.475 33.9581 228.816 33.7591C228.54 33.6759 228.282 33.6478 228.039 33.6749C227.812 33.7066 227.596 33.7331 227.389 33.7541C227.192 33.7951 226.995 33.7855 226.796 33.7254C226.612 33.6699 226.472 33.5524 226.376 33.3729C226.295 33.198 226.284 33.011 226.344 32.8119C226.428 32.5362 226.616 32.3841 226.909 32.3555L231.29 32.1248L233.383 32.8323L229.356 32.9694L229.751 32.738C230.395 32.9323 230.941 33.1977 231.391 33.5342C231.841 33.8707 232.259 34.2308 232.644 34.6147C233.04 35.0185 233.471 35.391 233.936 35.7321C234.397 36.0885 234.964 36.3685 235.638 36.5721C236.236 36.7525 236.753 36.8087 237.192 36.7406C237.641 36.6924 238.009 36.6364 238.296 36.5726C238.567 36.5041 238.805 36.4088 239.009 36.2866C239.223 36.1843 239.423 36.1609 239.607 36.2165ZM241.322 26.5556C240.956 27.7656 240.429 28.8182 239.741 29.7135C239.072 30.598 238.28 31.3114 237.364 31.8537C236.453 32.3807 235.46 32.7075 234.386 32.8342C233.331 32.9502 232.245 32.8393 231.127 32.5015C230.008 32.1638 229.035 31.6523 228.205 30.9672C227.396 30.2715 226.758 29.4519 226.291 28.5085C225.828 27.5498 225.556 26.5148 225.474 25.4036C225.411 24.2816 225.563 23.1157 225.929 21.9057C226.294 20.6957 226.811 19.6484 227.479 18.7639C228.168 17.8687 228.967 17.1576 229.879 16.6306C230.795 16.0883 231.78 15.7592 232.835 15.6432C233.909 15.5165 235.005 15.622 236.124 15.9598C237.242 16.2976 238.205 16.8143 239.015 17.5101C239.844 18.1952 240.49 19.0171 240.952 19.9758C241.42 20.9192 241.684 21.9519 241.747 23.0738C241.829 24.185 241.687 25.3456 241.322 26.5556ZM239.851 26.1115C240.263 24.7483 240.356 23.4727 240.13 22.2845C239.924 21.0857 239.441 20.0541 238.683 19.1899C237.924 18.3256 236.932 17.7084 235.707 17.3383C234.497 16.9728 233.329 16.9376 232.204 17.2327C231.094 17.5325 230.113 18.1222 229.263 19.0018C228.432 19.8707 227.811 20.9867 227.399 22.3498C226.987 23.713 226.884 24.994 227.09 26.1928C227.316 27.381 227.809 28.4072 228.567 29.2714C229.341 30.1403 230.333 30.7575 231.543 31.123C232.768 31.4932 233.936 31.5284 235.046 31.2286C236.156 30.9288 237.127 30.3445 237.957 29.4756C238.808 28.596 239.439 27.4746 239.851 26.1115Z" fill="white"/>
<path d="M264.639 27.0398C264.845 27.1297 264.977 27.2663 265.036 27.4496C265.102 27.6183 265.093 27.7978 265.01 27.9883L261.019 37.0878C260.544 38.1722 259.857 39.0415 258.958 39.6958C258.06 40.35 257.063 40.7514 255.967 40.8998C254.878 41.0335 253.791 40.8626 252.706 40.3871C251.622 39.9116 250.753 39.2247 250.099 38.3263C249.465 37.4197 249.085 36.4143 248.958 35.3103C248.83 34.2062 249.005 33.112 249.48 32.0277L253.47 22.9281C253.554 22.7376 253.68 22.6095 253.849 22.5437C254.038 22.4696 254.243 22.4808 254.463 22.5772C254.639 22.6543 254.764 22.7877 254.838 22.9774C254.918 23.1524 254.917 23.3352 254.833 23.5257L250.843 32.6252C250.47 33.4751 250.334 34.3238 250.434 35.1713C250.549 36.0253 250.853 36.8052 251.347 37.5111C251.848 38.2023 252.494 38.7214 253.285 39.0684C254.105 39.4282 254.939 39.5581 255.787 39.458C256.641 39.3433 257.413 39.0357 258.105 38.5352C258.811 38.041 259.35 37.369 259.723 36.5192L263.713 27.4196C263.796 27.2291 263.922 27.101 264.091 27.0352C264.266 26.9547 264.449 26.9562 264.639 27.0398Z" fill="white"/>
<path d="M276.508 33.0882L284.15 37.4679C284.316 37.5633 284.426 37.7094 284.48 37.9059C284.541 38.0885 284.52 38.2701 284.416 38.4506C284.313 38.631 284.167 38.741 283.978 38.7804C283.79 38.8199 283.612 38.7919 283.446 38.6964L276.283 34.5913L276.694 34.3566L273.34 40.2078L273.266 39.8058L279.513 43.3859C279.68 43.4814 279.79 43.6274 279.843 43.8239C279.897 44.0205 279.875 44.202 279.78 44.3686C279.677 44.5491 279.531 44.659 279.342 44.6985C279.153 44.738 278.976 44.7099 278.809 44.6145L272.604 41.0583L272.911 40.9574L269.474 46.9544L269.441 46.7698L276.5 50.8153C276.667 50.9108 276.777 51.0568 276.83 51.2533C276.884 51.4498 276.862 51.6314 276.767 51.798C276.664 51.9784 276.518 52.0884 276.329 52.1279C276.14 52.1673 275.963 52.1393 275.796 52.0438L268.154 47.6642C267.988 47.5687 267.878 47.4227 267.824 47.2262C267.771 47.0296 267.792 46.8481 267.888 46.6815L275.525 33.3549C275.621 33.1883 275.767 33.0784 275.963 33.025C276.16 32.9717 276.341 32.9928 276.508 33.0882Z" fill="white"/>
<path d="M287.598 59.8786C287.416 59.7485 287.308 59.583 287.274 59.3821C287.254 59.1905 287.299 59.0166 287.411 58.8603L296.292 46.4169L297.504 47.2813L288.622 59.7248C288.51 59.8811 288.354 59.976 288.153 60.0095C287.953 60.0431 287.767 59.9994 287.598 59.8786ZM291.914 43.9995C291.758 43.888 291.658 43.7383 291.616 43.5504C291.573 43.3626 291.612 43.184 291.733 43.0147C291.844 42.8585 291.996 42.7701 292.187 42.7495C292.379 42.729 292.553 42.7745 292.709 42.8861L302.007 49.5229C302.164 49.6344 302.263 49.7841 302.306 49.9719C302.349 50.1598 302.31 50.3383 302.189 50.5076C302.068 50.6769 301.912 50.7719 301.72 50.7924C301.538 50.7999 301.369 50.7479 301.213 50.6363L291.914 43.9995Z" fill="white"/>
<path d="M303.033 72.097C302.865 71.9489 302.774 71.7733 302.761 71.5701C302.76 71.3774 302.823 71.209 302.95 71.0649L313.053 59.5909L314.17 60.5742L304.067 72.0482C303.94 72.1923 303.775 72.2709 303.572 72.2838C303.369 72.2967 303.189 72.2344 303.033 72.097ZM308.944 56.7401C308.8 56.6132 308.716 56.4542 308.692 56.2629C308.669 56.0717 308.726 55.8981 308.863 55.7419C308.99 55.5978 309.15 55.5253 309.343 55.5244C309.535 55.5235 309.704 55.5865 309.848 55.7134L318.422 63.2628C318.566 63.3897 318.65 63.5488 318.673 63.74C318.697 63.9312 318.64 64.1049 318.502 64.261C318.365 64.4171 318.2 64.4956 318.007 64.4965C317.825 64.4854 317.662 64.4164 317.518 64.2896L308.944 56.7401Z" fill="white"/>
<path d="M315.335 82.8256C315.175 82.9589 314.987 83.0182 314.772 83.0035C314.569 83.0003 314.4 82.9298 314.266 82.7919C314.111 82.6311 314.034 82.4489 314.037 82.2452C314.052 82.0531 314.134 81.8847 314.283 81.7399L325.278 71.0831C325.427 70.9384 325.604 70.8676 325.807 70.8708C326.011 70.8739 326.191 70.956 326.347 71.1168C326.48 71.2547 326.546 71.4254 326.542 71.629C326.55 71.8442 326.48 72.0241 326.33 72.1689L315.335 82.8256Z" fill="white"/>
</svg>
