<svg width="1019" height="284" viewBox="0 0 1019 284" fill="none" xmlns="http://www.w3.org/2000/svg">
<path fill-rule="evenodd" clip-rule="evenodd" d="M8.00853 68.9524C5.00427 71.9566 2.00038 77.0198 2.00038 83.7803L2 83.9737C2 76.9375 3.50213 70.4545 6.5064 67.4502C9.51066 64.446 13.9453 63.403 19.1616 63.0331C24.353 62.6649 30.5107 63.4675 37.3231 64.8613C43.6374 66.1532 50.6093 67.9743 58.0047 69.9061C58.6008 70.0618 59.1995 70.2182 59.8009 70.3751C91.9478 78.7621 136.291 91.4433 166.326 68.2494C166.663 67.9889 167.164 68.1964 167.204 68.6208V68.6208C167.223 68.8238 167.122 69.0218 166.948 69.1279C132.524 90.115 98.0283 83.6316 59.081 73.4588C58.4853 73.3033 59.6704 73.6127 59.081 73.4588C51.6633 71.5213 43.0054 68.5342 36.7673 67.2579C30.0226 65.8779 24.8311 64.5205 20.0256 64.8613C15.245 65.2004 11.0128 65.9481 8.00853 68.9524Z" fill="white"/>
<path d="M59.081 73.4588C98.0283 83.6316 132.524 90.115 166.948 69.1279C167.122 69.0218 167.223 68.8238 167.204 68.6208V68.6208C167.164 68.1964 166.663 67.9889 166.326 68.2494C136.291 91.4433 91.9478 78.7621 59.8009 70.3751C59.1995 70.2182 58.6008 70.0618 58.0047 69.9061C50.6093 67.9743 43.6374 66.1532 37.3231 64.8613C30.5107 63.4675 24.353 62.6649 19.1616 63.0331C13.9453 63.403 9.51066 64.446 6.5064 67.4502C3.50213 70.4545 2 76.9375 2 83.9737L2.00038 83.7803C2.00038 77.0198 5.00427 71.9566 8.00853 68.9524C11.0128 65.9481 15.245 65.2004 20.0256 64.8613C24.8311 64.5205 30.0226 65.8779 36.7673 67.2579C43.0054 68.5342 51.6633 71.5213 59.081 73.4588ZM59.081 73.4588C59.6704 73.6127 58.4853 73.3033 59.081 73.4588Z" stroke="white" stroke-width="3.00427"/>
<path fill-rule="evenodd" clip-rule="evenodd" d="M159.785 79.9765C160.743 75.9899 161.468 72.974 161.946 71.1544L162.85 68.9523L168.623 69.1428L167.757 72.6793C167.303 74.4126 166.602 77.3297 165.67 81.2112C160.016 104.754 152.183 163.978 127.817 213.852C120.771 228.274 118.17 234.553 111.57 244.456C104.971 254.359 95.9522 262.522 88.145 266.751C80.1324 271.091 69.5577 271.671 60.8879 266.751C52.4613 261.968 44.2023 252.283 36.0261 237.072L34.871 234.633L37.5158 233.499L39.0271 236.522C47.7172 253.524 56.4073 260.325 63.7093 262.727C71.0598 265.146 76.9536 265.055 83.2874 261.625C89.8266 258.083 96.3682 251.143 102.758 241.555C109.113 232.018 115.148 220.123 120.771 207.005C140.071 161.988 154.073 103.738 159.785 79.9765Z" fill="white"/>
<path fill-rule="evenodd" clip-rule="evenodd" d="M179.148 24.8656C157.422 21.8442 130.389 29.7063 106.808 60.8173C130.78 29.1911 156.604 19.1389 179.483 22.3205C202.277 25.4904 221.777 41.7523 233.267 62.0027C244.752 82.2457 248.384 106.75 239.059 126.553C229.694 146.443 207.383 158.604 168.061 159.674C206.777 158.621 227.923 144.185 236.748 125.442C245.614 106.612 242.254 83.0151 231.049 63.265C219.847 43.5223 200.958 27.8986 179.148 24.8656Z" fill="white" stroke="white" stroke-width="4.5064" stroke-linejoin="bevel"/>
<path d="M420.407 168.128V129.457H423.33V166.179C423.33 171.62 422.193 175.964 419.92 179.212C418.783 180.876 417.626 182.257 416.448 183.353C415.271 184.49 413.83 185.667 412.124 186.885L410.846 184.997C417.22 180.328 420.407 174.705 420.407 168.128ZM468.732 168.798C465.931 172.087 461.668 173.731 455.943 173.731C450.219 173.731 445.936 172.066 443.094 168.737C440.292 165.408 438.891 160.861 438.891 155.095V129.457H441.815V155.095C441.815 165.814 446.504 171.173 455.882 171.173C465.302 171.173 470.011 165.814 470.011 155.095V129.457H472.934V155.095C472.934 160.901 471.534 165.469 468.732 168.798ZM488.503 173V129.457H491.426V170.32H511.462V173H488.503ZM520.856 173V129.457H523.779V173H520.856ZM542.142 157.897L535.869 173H532.763L551.094 129.152H552.8L571.191 173H567.903L561.63 157.897H542.142ZM551.764 134.024C551.724 134.065 551.642 134.308 551.521 134.755C550.952 136.501 550.404 137.983 549.876 139.201L543.177 155.4H560.595L553.896 139.261C552.475 136.176 551.764 134.43 551.764 134.024ZM583.011 136.399L583.133 141.576V173H580.21V129.091H581.55L610.233 162.16C612.182 164.474 613.684 166.321 614.74 167.702C614.578 165.753 614.496 163.52 614.496 161.003V129.457H617.42V173.365H616.08L586.848 139.688C584.818 137.374 583.519 135.831 582.95 135.059L583.011 136.399ZM635.811 157.897L629.539 173H626.433L644.764 129.152H646.469L664.861 173H661.572L655.299 157.897H635.811ZM645.434 134.024C645.393 134.065 645.312 134.308 645.19 134.755C644.622 136.501 644.074 137.983 643.546 139.201L636.847 155.4H654.264L647.565 139.261C646.144 136.176 645.434 134.43 645.434 134.024ZM695.825 173V129.7C699.194 129.375 702.463 129.213 705.629 129.213C709.892 129.213 713.303 130.208 715.861 132.197C718.459 134.186 719.758 137.191 719.758 141.21C719.758 145.189 717.992 148.478 714.46 151.076C710.968 153.634 706.787 154.913 701.915 154.913C701.712 154.913 701.488 154.913 701.245 154.913V152.903C701.407 152.903 701.549 152.903 701.671 152.903C705.69 152.903 709.182 151.847 712.146 149.736C715.11 147.625 716.591 144.885 716.591 141.515C716.591 138.104 715.556 135.648 713.486 134.146C711.415 132.603 708.634 131.832 705.142 131.832C703.315 131.832 701.184 131.913 698.748 132.075V173H695.825ZM730.67 157.897L724.398 173H721.292L739.623 129.152H741.328L759.72 173H756.431L750.158 157.897H730.67ZM740.292 134.024C740.252 134.065 740.171 134.308 740.049 134.755C739.48 136.501 738.932 137.983 738.405 139.201L731.706 155.4H749.123L742.424 139.261C741.003 136.176 740.292 134.43 740.292 134.024ZM787.556 133.293C784.592 132.035 781.649 131.405 778.726 131.405C772.798 131.405 769.834 133.598 769.834 137.983C769.834 139.891 770.504 141.677 771.844 143.342C773.184 144.966 774.808 146.427 776.716 147.727C778.624 148.985 780.532 150.284 782.44 151.624C784.349 152.964 785.973 154.568 787.312 156.435C788.652 158.303 789.322 160.333 789.322 162.525C789.322 166.22 788.084 169.021 785.607 170.929C783.131 172.797 779.7 173.731 775.315 173.731C770.971 173.731 767.256 172.614 764.17 170.381L765.632 168.189C768.555 170.097 771.763 171.051 775.254 171.051C778.746 171.051 781.425 170.361 783.293 168.981C785.161 167.56 786.094 165.53 786.094 162.891C786.094 161.064 785.425 159.338 784.085 157.714C782.745 156.05 781.121 154.568 779.213 153.268C777.305 151.929 775.396 150.569 773.488 149.188C771.58 147.808 769.956 146.163 768.616 144.255C767.276 142.347 766.606 140.297 766.606 138.104C766.606 135.222 767.662 132.948 769.773 131.284C771.925 129.578 774.808 128.726 778.421 128.726C782.075 128.726 785.465 129.457 788.591 130.918L787.556 133.293ZM805.514 167.215C801.495 162.87 799.485 157.531 799.485 151.198C799.485 144.864 801.495 139.546 805.514 135.242C809.574 130.898 814.69 128.726 820.861 128.726C827.032 128.726 832.148 130.898 836.208 135.242C840.268 139.546 842.298 144.864 842.298 151.198C842.298 154.933 841.526 158.404 839.983 161.612C838.481 164.779 836.39 167.397 833.711 169.468C842.034 174.502 848.448 177.791 852.955 179.334C858.314 181.161 863.146 182.074 867.449 182.074C869.926 182.074 872.748 181.749 875.914 181.1C879.081 180.45 881.355 179.78 882.735 179.09L883.466 180.795C881.883 181.607 879.447 182.399 876.158 183.17C872.91 183.942 870.007 184.327 867.449 184.327C864.891 184.327 862.171 184.003 859.289 183.353C856.447 182.744 853.99 182.094 851.92 181.404C849.89 180.714 847.352 179.618 844.307 178.116C841.262 176.613 839.07 175.477 837.73 174.705C836.431 173.974 834.299 172.756 831.336 171.051C828.128 172.838 824.637 173.731 820.861 173.731C814.69 173.731 809.574 171.559 805.514 167.215ZM807.706 137.13C804.337 140.906 802.652 145.595 802.652 151.198C802.652 156.801 804.337 161.51 807.706 165.327C811.117 169.143 815.502 171.051 820.861 171.051C823.784 171.051 826.423 170.463 828.778 169.285C823.703 165.834 819.704 164.109 816.78 164.109C814.953 164.109 813.472 164.433 812.335 165.083L811.36 163.317C812.863 162.302 814.71 161.794 816.902 161.794C819.095 161.794 821.287 162.322 823.479 163.378C825.712 164.433 828.27 165.936 831.153 167.884C833.67 166.098 835.619 163.743 836.999 160.82C838.42 157.897 839.131 154.689 839.131 151.198C839.131 145.595 837.426 140.906 834.015 137.13C830.645 133.314 826.261 131.405 820.861 131.405C815.461 131.405 811.076 133.314 807.706 137.13ZM885.16 168.798C882.358 172.087 878.095 173.731 872.371 173.731C866.646 173.731 862.363 172.066 859.521 168.737C856.719 165.408 855.319 160.861 855.319 155.095V129.457H858.242V155.095C858.242 165.814 862.931 171.173 872.31 171.173C881.729 171.173 886.439 165.814 886.439 155.095V129.457H889.362V155.095C889.362 160.901 887.961 165.469 885.16 168.798ZM904.93 173V129.457H925.149V132.014H907.854V148.031H923.505V150.528H907.854V170.442H925.819V173H904.93ZM945.56 132.014H930.822V129.457H963.221V132.014H948.483V173H945.56V132.014ZM980.649 132.014H965.911V129.457H998.31V132.014H983.572V173H980.649V132.014ZM1007.7 173V129.457H1010.62V173H1007.7Z" fill="white"/>
</svg>
