<svg width="1000" height="1000" viewBox="0 0 1000 1000" fill="none" xmlns="http://www.w3.org/2000/svg">
<rect width="1000" height="1000" fill="white"/>
<path fill-rule="evenodd" clip-rule="evenodd" d="M132.378 250.619C122.439 260.559 112.501 277.309 112.501 299.675L112.5 300.315C112.5 277.037 117.47 255.589 127.409 245.65C137.348 235.711 152.02 232.26 169.277 231.036C186.452 229.818 206.824 232.474 229.362 237.085C250.252 241.359 273.317 247.384 297.784 253.775C299.756 254.29 301.737 254.807 303.726 255.326C410.08 283.074 556.785 325.027 656.15 248.294C657.266 247.432 658.924 248.118 659.054 249.522V249.522C659.117 250.194 658.783 250.849 658.207 251.2C544.321 320.633 430.197 299.184 301.345 265.528C299.374 265.014 303.295 266.037 301.345 265.528C276.804 259.118 248.161 249.236 227.523 245.013C205.209 240.448 188.033 235.957 172.135 237.085C156.319 238.206 142.318 240.68 132.378 250.619Z" fill="black"/>
<path d="M301.345 265.528C430.197 299.184 544.321 320.633 658.207 251.2C658.783 250.849 659.117 250.194 659.054 249.522V249.522C658.924 248.118 657.266 247.432 656.15 248.294C556.785 325.027 410.08 283.074 303.726 255.326C301.737 254.807 299.756 254.29 297.784 253.775C273.317 247.384 250.252 241.359 229.362 237.085C206.824 232.474 186.452 229.818 169.277 231.036C152.02 232.26 137.348 235.711 127.409 245.65C117.47 255.589 112.5 277.037 112.5 300.315L112.501 299.675C112.501 277.309 122.439 260.559 132.378 250.619C142.318 240.68 156.319 238.206 172.135 237.085C188.033 235.957 205.209 240.448 227.523 245.013C248.161 249.236 276.804 259.118 301.345 265.528ZM301.345 265.528C303.295 266.037 299.374 265.014 301.345 265.528Z" stroke="black" stroke-width="3.97568"/>
<path fill-rule="evenodd" clip-rule="evenodd" d="M634.511 287.092C637.681 273.903 640.079 263.925 641.659 257.905L644.652 250.62L663.75 251.25L660.887 262.95C659.382 268.684 657.064 278.335 653.98 291.177C635.275 369.065 609.361 565 528.75 730C505.44 777.713 496.833 798.487 475 831.25C453.167 864.013 423.329 891.018 397.5 905.008C370.991 919.367 336.006 921.288 307.323 905.008C279.445 889.185 252.122 857.145 225.072 806.82L221.25 798.75L230 795L235 805C263.75 861.25 292.5 883.75 316.658 891.698C340.976 899.699 360.475 899.4 381.429 888.05C403.063 876.332 424.705 853.374 445.844 821.653C466.87 790.101 486.834 750.747 505.44 707.349C569.29 558.417 615.614 365.704 634.511 287.092Z" fill="black"/>
<path fill-rule="evenodd" clip-rule="evenodd" d="M698.57 104.764C626.691 94.7685 537.258 120.779 459.243 223.706C538.55 119.075 623.987 85.8185 699.677 96.3444C775.089 106.832 839.603 160.632 877.614 227.627C915.611 294.599 927.626 375.667 896.778 441.183C865.795 506.987 791.981 547.22 661.889 550.76C789.975 547.275 859.935 499.516 889.131 437.507C918.464 375.21 907.347 297.144 870.276 231.804C833.218 166.488 770.726 114.799 698.57 104.764Z" fill="black" stroke="black" stroke-width="5.96352" stroke-linejoin="bevel"/>
</svg>
