<svg width="1344" height="284" viewBox="0 0 1344 284" fill="none" xmlns="http://www.w3.org/2000/svg">
<path fill-rule="evenodd" clip-rule="evenodd" d="M7.51048 68.9524C4.50622 71.9566 1.50234 77.0198 1.50234 83.7803L1.50195 83.9737C1.50195 76.9375 3.00409 70.4545 6.00835 67.4502C9.01262 64.446 13.4473 63.403 18.6636 63.0331C23.855 62.6649 30.0127 63.4675 36.825 64.8613C43.1394 66.1532 50.1113 67.9743 57.5067 69.9061C58.1027 70.0618 58.7015 70.2182 59.3029 70.3751C91.4498 78.7621 135.793 91.4433 165.828 68.2494C166.165 67.9889 166.666 68.1964 166.706 68.6208C166.725 68.8238 166.624 69.0218 166.45 69.1279C132.026 90.115 97.5303 83.6316 58.583 73.4588C57.9872 73.3033 59.1723 73.6127 58.583 73.4588C51.1652 71.5213 42.5074 68.5342 36.2692 67.2579C29.5246 65.8779 24.333 64.5205 19.5275 64.8613C14.7469 65.2004 10.5147 65.9481 7.51048 68.9524Z" fill="white"/>
<path d="M58.583 73.4588C97.5303 83.6316 132.026 90.115 166.45 69.1279C166.624 69.0218 166.725 68.8238 166.706 68.6208C166.666 68.1964 166.165 67.9889 165.828 68.2494C135.793 91.4433 91.4498 78.7621 59.3029 70.3751C58.7015 70.2182 58.1027 70.0618 57.5067 69.9061C50.1113 67.9743 43.1394 66.1532 36.825 64.8613C30.0127 63.4675 23.855 62.6649 18.6636 63.0331C13.4473 63.403 9.01262 64.446 6.00835 67.4502C3.00409 70.4545 1.50195 76.9375 1.50195 83.9737L1.50234 83.7803C1.50234 77.0198 4.50622 71.9566 7.51048 68.9524C10.5147 65.9481 14.7469 65.2004 19.5275 64.8613C24.333 64.5205 29.5246 65.8779 36.2692 67.2579C42.5074 68.5342 51.1652 71.5213 58.583 73.4588ZM58.583 73.4588C59.1723 73.6127 57.9872 73.3033 58.583 73.4588Z" stroke="white" stroke-width="3.00427"/>
<path fill-rule="evenodd" clip-rule="evenodd" d="M159.287 79.9765C160.245 75.9899 160.97 72.974 161.447 71.1544L162.352 68.9523L168.125 69.1428L167.259 72.6793C166.804 74.4126 166.104 77.3297 165.172 81.2112C159.518 104.754 151.685 163.978 127.319 213.852C120.273 228.274 117.672 234.553 111.072 244.456C104.473 254.359 95.4541 262.522 87.647 266.751C79.6344 271.091 69.0596 271.671 60.3898 266.751C51.9633 261.968 43.7043 252.283 35.5281 237.072L34.3729 234.633L37.0178 233.499L38.5291 236.522C47.2192 253.524 55.9092 260.325 63.2113 262.727C70.5617 265.146 76.4556 265.055 82.7894 261.625C89.3286 258.083 95.8702 251.143 102.26 241.555C108.615 232.018 114.649 220.123 120.273 207.005C139.573 161.988 153.575 103.738 159.287 79.9765Z" fill="white"/>
<path fill-rule="evenodd" clip-rule="evenodd" d="M178.65 24.8656C156.924 21.8442 129.891 29.7063 106.31 60.8173C130.282 29.1911 156.106 19.1389 178.985 22.3205C201.779 25.4904 221.279 41.7523 232.769 62.0027C244.254 82.2457 247.886 106.75 238.561 126.553C229.196 146.443 206.885 158.604 167.563 159.674C206.279 158.621 227.425 144.185 236.25 125.442C245.116 106.612 241.756 83.0151 230.551 63.265C219.349 43.5223 200.46 27.8986 178.65 24.8656Z" fill="white" stroke="white" stroke-width="4.5064" stroke-linejoin="bevel"/>
<path d="M356.33 168.32V107.36H360.938V165.248C360.938 173.824 359.146 180.672 355.562 185.792C353.77 188.416 351.946 190.592 350.09 192.32C348.234 194.112 345.962 195.968 343.274 197.888L341.258 194.912C351.306 187.552 356.33 178.688 356.33 168.32ZM432.508 169.376C428.092 174.56 421.372 177.152 412.348 177.152C403.324 177.152 396.572 174.528 392.092 169.28C387.676 164.032 385.468 156.864 385.468 147.776V107.36H390.076V147.776C390.076 164.672 397.468 173.12 412.252 173.12C427.1 173.12 434.524 164.672 434.524 147.776V107.36H439.132V147.776C439.132 156.928 436.924 164.128 432.508 169.376ZM463.674 176V107.36H468.282V171.776H499.866V176H463.674ZM514.674 176V107.36H519.282V176H514.674ZM548.228 152.192L538.34 176H533.444L562.34 106.88H565.028L594.02 176H588.836L578.948 152.192H548.228ZM563.396 114.56C563.332 114.624 563.204 115.008 563.012 115.712C562.116 118.464 561.252 120.8 560.42 122.72L549.86 148.256H577.316L566.756 122.816C564.516 117.952 563.396 115.2 563.396 114.56ZM612.652 118.304L612.844 126.464V176H608.236V106.784H610.348L655.564 158.912C658.636 162.56 661.004 165.472 662.668 167.648C662.412 164.576 662.284 161.056 662.284 157.088V107.36H666.892V176.576H664.78L618.7 123.488C615.5 119.84 613.452 117.408 612.556 116.192L612.652 118.304ZM695.884 152.192L685.996 176H681.1L709.996 106.88H712.684L741.676 176H736.492L726.604 152.192H695.884ZM711.052 114.56C710.988 114.624 710.86 115.008 710.668 115.712C709.772 118.464 708.908 120.8 708.076 122.72L697.516 148.256H724.972L714.412 122.816C712.172 117.952 711.052 115.2 711.052 114.56ZM790.486 176V107.744C795.798 107.232 800.95 106.976 805.942 106.976C812.662 106.976 818.038 108.544 822.07 111.68C826.166 114.816 828.214 119.552 828.214 125.888C828.214 132.16 825.43 137.344 819.862 141.44C814.358 145.472 807.766 147.488 800.086 147.488C799.766 147.488 799.414 147.488 799.03 147.488V144.32C799.286 144.32 799.51 144.32 799.702 144.32C806.038 144.32 811.542 142.656 816.214 139.328C820.886 136 823.222 131.68 823.222 126.368C823.222 120.992 821.59 117.12 818.326 114.752C815.062 112.32 810.678 111.104 805.174 111.104C802.294 111.104 798.934 111.232 795.094 111.488V176H790.486ZM845.416 152.192L835.528 176H830.632L859.528 106.88H862.216L891.208 176H886.024L876.136 152.192H845.416ZM860.584 114.56C860.52 114.624 860.392 115.008 860.2 115.712C859.304 118.464 858.44 120.8 857.608 122.72L847.048 148.256H874.504L863.944 122.816C861.704 117.952 860.584 115.2 860.584 114.56ZM935.088 113.408C930.416 111.424 925.776 110.432 921.168 110.432C911.824 110.432 907.152 113.888 907.152 120.8C907.152 123.808 908.208 126.624 910.32 129.248C912.432 131.808 914.992 134.112 918 136.16C921.008 138.144 924.016 140.192 927.024 142.304C930.032 144.416 932.592 146.944 934.704 149.888C936.816 152.832 937.872 156.032 937.872 159.488C937.872 165.312 935.92 169.728 932.016 172.736C928.112 175.68 922.704 177.152 915.792 177.152C908.944 177.152 903.088 175.392 898.224 171.872L900.528 168.416C905.136 171.424 910.192 172.928 915.696 172.928C921.2 172.928 925.424 171.84 928.368 169.664C931.312 167.424 932.784 164.224 932.784 160.064C932.784 157.184 931.728 154.464 929.616 151.904C927.504 149.28 924.944 146.944 921.936 144.896C918.928 142.784 915.92 140.64 912.912 138.464C909.904 136.288 907.344 133.696 905.232 130.688C903.12 127.68 902.064 124.448 902.064 120.992C902.064 116.448 903.728 112.864 907.056 110.24C910.448 107.552 914.992 106.208 920.688 106.208C926.448 106.208 931.792 107.36 936.72 109.664L935.088 113.408ZM963.396 166.88C957.06 160.032 953.892 151.616 953.892 141.632C953.892 131.648 957.06 123.264 963.396 116.48C969.796 109.632 977.86 106.208 987.588 106.208C997.316 106.208 1005.38 109.632 1011.78 116.48C1018.18 123.264 1021.38 131.648 1021.38 141.632C1021.38 147.52 1020.16 152.992 1017.73 158.048C1015.36 163.04 1012.07 167.168 1007.84 170.432C1020.96 178.368 1031.08 183.552 1038.18 185.984C1046.63 188.864 1054.24 190.304 1061.03 190.304C1064.93 190.304 1069.38 189.792 1074.37 188.768C1079.36 187.744 1082.95 186.688 1085.12 185.6L1086.28 188.288C1083.78 189.568 1079.94 190.816 1074.76 192.032C1069.64 193.248 1065.06 193.856 1061.03 193.856C1057 193.856 1052.71 193.344 1048.16 192.32C1043.68 191.36 1039.81 190.336 1036.55 189.248C1033.35 188.16 1029.35 186.432 1024.55 184.064C1019.75 181.696 1016.29 179.904 1014.18 178.688C1012.13 177.536 1008.77 175.616 1004.1 172.928C999.044 175.744 993.54 177.152 987.588 177.152C977.86 177.152 969.796 173.728 963.396 166.88ZM966.852 119.456C961.54 125.408 958.884 132.8 958.884 141.632C958.884 150.464 961.54 157.888 966.852 163.904C972.228 169.92 979.14 172.928 987.588 172.928C992.196 172.928 996.356 172 1000.07 170.144C992.068 164.704 985.764 161.984 981.156 161.984C978.276 161.984 975.94 162.496 974.148 163.52L972.612 160.736C974.98 159.136 977.892 158.336 981.348 158.336C984.804 158.336 988.26 159.168 991.716 160.832C995.236 162.496 999.268 164.864 1003.81 167.936C1007.78 165.12 1010.85 161.408 1013.03 156.8C1015.27 152.192 1016.39 147.136 1016.39 141.632C1016.39 132.8 1013.7 125.408 1008.32 119.456C1003.01 113.44 996.1 110.432 987.588 110.432C979.076 110.432 972.164 113.44 966.852 119.456ZM1088.95 169.376C1084.53 174.56 1077.81 177.152 1068.79 177.152C1059.76 177.152 1053.01 174.528 1048.53 169.28C1044.11 164.032 1041.91 156.864 1041.91 147.776V107.36H1046.51V147.776C1046.51 164.672 1053.91 173.12 1068.69 173.12C1083.54 173.12 1090.96 164.672 1090.96 147.776V107.36H1095.57V147.776C1095.57 156.928 1093.36 164.128 1088.95 169.376ZM1120.11 176V107.36H1151.98V111.392H1124.72V136.64H1149.39V140.576H1124.72V171.968H1153.04V176H1120.11ZM1184.16 111.392H1160.93V107.36H1212V111.392H1188.77V176H1184.16V111.392ZM1239.47 111.392H1216.24V107.36H1267.31V111.392H1244.08V176H1239.47V111.392ZM1282.11 176V107.36H1286.72V176H1282.11Z" fill="white"/>
</svg>
