<svg width="870" height="938" viewBox="0 0 870 938" fill="none" xmlns="http://www.w3.org/2000/svg">
<path fill-rule="evenodd" clip-rule="evenodd" d="M22.3784 228.619C12.4392 238.559 2.50127 255.309 2.50127 277.675L2.5 278.315C2.5 255.037 7.4696 233.589 17.4088 223.65C27.348 213.711 42.0195 210.26 59.2768 209.036C76.4518 207.818 96.8238 210.474 119.362 215.085C140.252 219.359 163.317 225.384 187.784 231.775C189.756 232.29 191.737 232.807 193.726 233.326C300.08 261.074 446.785 303.027 546.15 226.294C547.266 225.432 548.924 226.118 549.054 227.522V227.522C549.117 228.194 548.783 228.849 548.207 229.2C434.321 298.633 320.197 277.184 191.345 243.528C189.374 243.014 193.295 244.037 191.345 243.528C166.804 237.118 138.161 227.236 117.523 223.013C95.2091 218.448 78.0335 213.957 62.1352 215.085C46.3192 216.206 32.3176 218.68 22.3784 228.619Z" fill="white"/>
<path d="M191.345 243.528C320.197 277.184 434.321 298.633 548.207 229.2C548.783 228.849 549.117 228.194 549.054 227.522V227.522C548.924 226.118 547.266 225.432 546.15 226.294C446.785 303.027 300.08 261.074 193.726 233.326C191.737 232.807 189.756 232.29 187.784 231.775C163.317 225.384 140.252 219.359 119.362 215.085C96.8238 210.474 76.4518 207.818 59.2768 209.036C42.0195 210.26 27.348 213.711 17.4088 223.65C7.4696 233.589 2.5 255.037 2.5 278.315L2.50127 277.675C2.50127 255.309 12.4392 238.559 22.3784 228.619C32.3176 218.68 46.3192 216.206 62.1352 215.085C78.0335 213.957 95.2091 218.448 117.523 223.013C138.161 227.236 166.804 237.118 191.345 243.528ZM191.345 243.528C193.295 244.037 189.374 243.014 191.345 243.528Z" stroke="white" stroke-width="3.97568"/>
<path d="M121.444 784.778L121.46 784.81C150.483 841.594 179.906 865.082 205.415 873.475C230.528 881.737 251.201 881.528 273.323 869.546C295.796 857.373 317.875 833.786 339.152 801.858C360.362 770.03 380.436 730.436 399.094 686.916C463.076 537.674 509.46 344.713 528.357 266.101L528.376 266.021C531.507 252.996 533.87 243.165 535.437 237.17L537.28 232.684L548.724 233.062L547.033 239.973C545.517 245.751 543.196 255.416 540.132 268.173L540.114 268.248C536.162 284.705 531.907 306.29 526.908 331.644C508.072 427.189 478.681 576.271 415.178 706.255C410.768 715.281 406.889 723.332 403.353 730.672C388.133 762.262 379.255 780.69 361.691 807.045C340.174 839.335 310.8 865.867 285.606 879.513C260.166 893.292 226.646 895.08 199.286 879.551C172.386 864.282 145.52 833.048 118.622 783.027L116.61 778.779L118.121 778.131L121.444 784.778Z" fill="white" stroke="white" stroke-width="7.95136" stroke-linecap="square" stroke-linejoin="bevel"/>
<path fill-rule="evenodd" clip-rule="evenodd" d="M588.57 82.7644C516.691 72.7685 427.258 98.7793 349.243 201.706C428.55 97.0747 513.987 63.8185 589.677 74.3444C665.089 84.8316 729.603 138.632 767.614 205.627C805.611 272.599 817.626 353.667 786.778 419.183C755.795 484.987 681.98 525.22 551.889 528.76C679.975 525.275 749.935 477.516 779.131 415.507C808.463 353.21 797.347 275.144 760.276 209.804C723.218 144.488 660.726 92.7989 588.57 82.7644Z" fill="white" stroke="white" stroke-width="5.96352" stroke-linejoin="bevel"/>
</svg>
